# xmcd
# Copyright (C) 1995-1998 Ti Kan
#
# Track frame offsets:
#       150
#       14919
#       30476
#       47480
#       59953
#       76229
#       109399
#       123763
#       136378
#       148916
#       175020
#       192335
#       208753
#
# Disc length: 2989 seconds
#
# Revision: 0
# Processed by: cddbd v1.5.2PL0 Copyright (c) Steve Scherf et al.
# Submitted via: CD-Import v1.0
#
DISCID=c20bab0d
DTITLE=Prova Folklore Orchestra - Prova Folklore Orchestra Winterthur
DYEAR=2006
DGENRE=
TTITLE0=Bim Alperösli
TTITLE1=Rauschen An Der Urnäsch
TTITLE2=Trombumba
TTITLE3=De Lückebüesser
TTITLE4=Las Perlitas
TTITLE5=Palt (Skandinavische Suite)
TTITLE6=Freilach
TTITLE7=Nign
TTITLE8=Koshid Wedding Dance
TTITLE9=Rumänische Suite
TTITLE10=La Marche Des Manouches
TTITLE11=A De Appenzeller Chilbi
TTITLE12=En Tänzige Schottisch
EXTD=
EXTT0=
EXTT1=
EXTT2=
EXTT3=
EXTT4=
EXTT5=
EXTT6=
EXTT7=
EXTT8=
EXTT9=
EXTT10=
EXTT11=
EXTT12=
PLAYORDER=
